<svg xmlns="http://www.w3.org/2000/svg" xmlns:xlink="http://www.w3.org/1999/xlink" viewBox="0 0 343.209 51.707">
  <defs>
    <style>
      .cls-1 {
        fill: url(#linear-gradient);
      }
    </style>
    <linearGradient id="linear-gradient" y1="0.5" x2="1" y2="0.524" gradientUnits="objectBoundingBox">
      <stop offset="0" stop-color="#16ccd9"/>
      <stop offset="1" stop-color="#f462a8"/>
    </linearGradient>
  </defs>
  <path id="Path_1907" data-name="Path 1907" class="cls-1" d="M-111.6-18.061a15.663,15.663,0,0,1,2.189,1.5,11.011,11.011,0,0,1,2.018,2.189,11.616,11.616,0,0,1,1.5,3.009,12.084,12.084,0,0,1,.581,3.9,16.913,16.913,0,0,1-1.4,7.353,12.167,12.167,0,0,1-3.8,4.651,14.939,14.939,0,0,1-5.506,2.462,28.968,28.968,0,0,1-6.532.718h-21.681a1.583,1.583,0,0,1-1.163-.479,1.583,1.583,0,0,1-.479-1.163V-40.7a1.583,1.583,0,0,1,.479-1.163,1.583,1.583,0,0,1,1.163-.479h20.655a27.023,27.023,0,0,1,6.292.718,14.956,14.956,0,0,1,5.3,2.36,12.241,12.241,0,0,1,3.693,4.275,13.613,13.613,0,0,1,1.4,6.463,9.239,9.239,0,0,1-1.539,5.335,14.341,14.341,0,0,1-3.317,3.557Q-112.972-18.745-111.6-18.061Zm-19.082-5.266h6.361a2.628,2.628,0,0,0,2.189-1.06,3.761,3.761,0,0,0,.821-2.36,2.755,2.755,0,0,0-.992-2.12,2.908,2.908,0,0,0-1.881-.889h-6.5a1.583,1.583,0,0,0-1.163.479,1.583,1.583,0,0,0-.479,1.163v3.146a1.583,1.583,0,0,0,.479,1.163A1.583,1.583,0,0,0-130.686-23.328Zm7.182,11.285h-7.182a1.583,1.583,0,0,0-1.163.479,1.583,1.583,0,0,0-.479,1.163v3.9a1.583,1.583,0,0,0,.479,1.163,1.583,1.583,0,0,0,1.163.479h7.66A3.365,3.365,0,0,0-120.7-5.887a3.186,3.186,0,0,0,1.094-2.394,3.918,3.918,0,0,0-1.06-2.5A3.514,3.514,0,0,0-123.5-12.042ZM-85.34-40.769a2.541,2.541,0,0,1,.923-1.06,2.435,2.435,0,0,1,1.4-.445h9.575a2.335,2.335,0,0,1,1.334.445,2.541,2.541,0,0,1,.923,1.06L-51.21,5.74a1.4,1.4,0,0,1-.1,1.3,1.525,1.525,0,0,1-1.471.684h-11.7a2.435,2.435,0,0,1-1.4-.445,3.125,3.125,0,0,1-.992-1.06l-1.847-4.1a3.125,3.125,0,0,0-.992-1.06A2.335,2.335,0,0,0-71.045.611H-85.477a2.435,2.435,0,0,0-1.4.445,2.541,2.541,0,0,0-.923,1.06l-1.915,4.1a2.541,2.541,0,0,1-.923,1.06,2.335,2.335,0,0,1-1.334.445h-11.764a2.1,2.1,0,0,1-.718-.137,1.465,1.465,0,0,1-.616-.41,1.351,1.351,0,0,1-.308-.684,1.59,1.59,0,0,1,.205-.958ZM-81.3-11.016h6.087a1.12,1.12,0,0,0,.992-.445.948.948,0,0,0-.034-1.06q-.684-1.71-1.641-4T-77.68-20.8q-.274-.616-.616-.616t-.616.616l-3.42,8.276a1.09,1.09,0,0,0,0,1.06A1.107,1.107,0,0,0-81.3-11.016Zm44.115,18.74H-47.38a1.583,1.583,0,0,1-1.163-.479,1.583,1.583,0,0,1-.479-1.163V-40.7a1.583,1.583,0,0,1,.479-1.163,1.583,1.583,0,0,1,1.163-.479h21.271a19.617,19.617,0,0,1,7.318,1.334A16.438,16.438,0,0,1-13.08-37.28,17.218,17.218,0,0,1-9.387-31.6a19.092,19.092,0,0,1,1.334,7.25,18.689,18.689,0,0,1-.513,4.343,18.8,18.8,0,0,1-1.471,4.07,17.357,17.357,0,0,1-2.257,3.454,12.529,12.529,0,0,1-2.941,2.565,1.9,1.9,0,0,0-.718.992A1.226,1.226,0,0,0-15.713-7.8q2.6,3.42,5.472,7.045t5.13,6.634a1.26,1.26,0,0,1,.205,1.2.852.852,0,0,1-.889.65H-18.517a3.427,3.427,0,0,1-1.471-.376,3.162,3.162,0,0,1-1.2-.923Q-23.373,3.552-25.528.611T-29.8-5.34a3.214,3.214,0,0,0-1.163-.923A3.215,3.215,0,0,0-32.4-6.639h-1.5a1.583,1.583,0,0,0-1.163.479A1.583,1.583,0,0,0-35.548-5V6.082a1.583,1.583,0,0,1-.479,1.163A1.583,1.583,0,0,1-37.189,7.724Zm3.283-26.948h7.25a5.22,5.22,0,0,0,1.71-.308,5,5,0,0,0,1.641-.958A5.117,5.117,0,0,0-22.074-22.1a4.99,4.99,0,0,0,.479-2.257,6.532,6.532,0,0,0-.239-1.607,5.7,5.7,0,0,0-.821-1.778,4.8,4.8,0,0,0-1.573-1.436,4.727,4.727,0,0,0-2.428-.581h-7.25a1.583,1.583,0,0,0-1.163.479,1.583,1.583,0,0,0-.479,1.163v7.25a1.583,1.583,0,0,0,.479,1.163A1.583,1.583,0,0,0-33.906-19.224ZM48.51-5.613A39.488,39.488,0,0,1,44.133.235a25.161,25.161,0,0,1-5.369,4.48,25.721,25.721,0,0,1-6.6,2.873,29.33,29.33,0,0,1-8,1.026A25.767,25.767,0,0,1,13.9,6.561a27.376,27.376,0,0,1-8.378-5.54A25.479,25.479,0,0,1-.119-7.186,24.941,24.941,0,0,1-2.171-17.24,24.941,24.941,0,0,1-.119-27.295,25.479,25.479,0,0,1,5.524-35.5a27.376,27.376,0,0,1,8.378-5.54,25.767,25.767,0,0,1,10.259-2.052A29.881,29.881,0,0,1,32.3-42.068,25.147,25.147,0,0,1,38.867-39.2a24.8,24.8,0,0,1,5.3,4.48,42.987,42.987,0,0,1,4.343,5.779,1.312,1.312,0,0,1,.137,1.163,1.439,1.439,0,0,1-.821.889l-9.712,3.83a1.778,1.778,0,0,1-1.368,0,2.071,2.071,0,0,1-1.026-.821A14.45,14.45,0,0,0,30.933-28.7a12.969,12.969,0,0,0-6.771-1.676,11.2,11.2,0,0,0-4.89,1.094,13.369,13.369,0,0,0-4,2.907A13.22,13.22,0,0,0,12.6-22.165a13.146,13.146,0,0,0-.958,4.924,13.062,13.062,0,0,0,.958,4.959A12.91,12.91,0,0,0,15.27-8.144a13.67,13.67,0,0,0,4,2.873,11.2,11.2,0,0,0,4.89,1.094,13.047,13.047,0,0,0,6.805-1.812,13.966,13.966,0,0,0,4.822-4.685,2.086,2.086,0,0,1,.992-.821,1.694,1.694,0,0,1,1.334,0l9.712,3.83a1.442,1.442,0,0,1,.821.855A1.41,1.41,0,0,1,48.51-5.613ZM66.293-40.769a2.541,2.541,0,0,1,.923-1.06,2.435,2.435,0,0,1,1.4-.445h9.575a2.335,2.335,0,0,1,1.334.445,2.541,2.541,0,0,1,.923,1.06L100.423,5.74a1.4,1.4,0,0,1-.1,1.3,1.525,1.525,0,0,1-1.471.684h-11.7a2.435,2.435,0,0,1-1.4-.445,3.125,3.125,0,0,1-.992-1.06l-1.847-4.1a3.125,3.125,0,0,0-.992-1.06A2.335,2.335,0,0,0,80.588.611H66.156a2.435,2.435,0,0,0-1.4.445,2.541,2.541,0,0,0-.923,1.06l-1.915,4.1a2.541,2.541,0,0,1-.923,1.06,2.335,2.335,0,0,1-1.334.445H47.895a2.1,2.1,0,0,1-.718-.137,1.465,1.465,0,0,1-.616-.41,1.351,1.351,0,0,1-.308-.684,1.59,1.59,0,0,1,.205-.958Zm4.035,29.752h6.087a1.12,1.12,0,0,0,.992-.445.948.948,0,0,0-.034-1.06q-.684-1.71-1.641-4T73.953-20.8q-.274-.616-.616-.616t-.616.616L69.3-12.521a1.09,1.09,0,0,0,0,1.06A1.107,1.107,0,0,0,70.329-11.016Zm44.115,18.74H104.253a1.635,1.635,0,0,1-1.641-1.641V-40.7a1.583,1.583,0,0,1,.479-1.163,1.583,1.583,0,0,1,1.163-.479h21.271a19.617,19.617,0,0,1,7.318,1.334,16.438,16.438,0,0,1,5.711,3.728,17.218,17.218,0,0,1,3.693,5.677,19.092,19.092,0,0,1,1.334,7.25,18.69,18.69,0,0,1-.513,4.343,18.806,18.806,0,0,1-1.471,4.07,17.356,17.356,0,0,1-2.257,3.454A12.528,12.528,0,0,1,136.4-9.922a1.9,1.9,0,0,0-.718.992A1.226,1.226,0,0,0,135.92-7.8q2.6,3.42,5.472,7.045t5.13,6.634a1.26,1.26,0,0,1,.205,1.2.852.852,0,0,1-.889.65H133.116a3.427,3.427,0,0,1-1.471-.376,3.162,3.162,0,0,1-1.2-.923Q128.26,3.552,126.105.611T121.83-5.34a3.215,3.215,0,0,0-1.163-.923,3.215,3.215,0,0,0-1.436-.376h-1.5a1.583,1.583,0,0,0-1.163.479A1.583,1.583,0,0,0,116.085-5V6.082a1.635,1.635,0,0,1-1.641,1.641Zm3.283-26.948h7.25a5.22,5.22,0,0,0,1.71-.308,5,5,0,0,0,1.641-.958,5.118,5.118,0,0,0,1.231-1.607,4.99,4.99,0,0,0,.479-2.257,6.533,6.533,0,0,0-.239-1.607,5.694,5.694,0,0,0-.821-1.778,4.8,4.8,0,0,0-1.573-1.436,4.727,4.727,0,0,0-2.428-.581h-7.25a1.583,1.583,0,0,0-1.163.479,1.583,1.583,0,0,0-.479,1.163v7.25a1.583,1.583,0,0,0,.479,1.163A1.583,1.583,0,0,0,117.727-19.224Zm34.2,25.306V-40.7a1.583,1.583,0,0,1,.479-1.163,1.583,1.583,0,0,1,1.163-.479h18.672q10.738,0,17.578,6.292a22.463,22.463,0,0,1,5.608,8.139,27.971,27.971,0,0,1,1.915,10.6,28.234,28.234,0,0,1-1.915,10.636A22.4,22.4,0,0,1,189.816,1.5a23.267,23.267,0,0,1-7.831,4.651,28.845,28.845,0,0,1-9.746,1.573H153.566a1.635,1.635,0,0,1-1.641-1.641ZM167.108-4.861h5.13A17.442,17.442,0,0,0,176.2-5.34,9.043,9.043,0,0,0,179.9-7.152a9.763,9.763,0,0,0,2.7-3.762,15.973,15.973,0,0,0,1.06-6.327,15.973,15.973,0,0,0-1.06-6.327,9.59,9.59,0,0,0-2.736-3.762,9.331,9.331,0,0,0-3.693-1.812,17.006,17.006,0,0,0-3.933-.479h-5.13a1.583,1.583,0,0,0-1.163.479,1.583,1.583,0,0,0-.479,1.163V-6.5a1.583,1.583,0,0,0,.479,1.163A1.583,1.583,0,0,0,167.108-4.861Z" transform="translate(145.87 43.094)"/>
</svg>
